<mxfile host="app.diagrams.net" modified="2022-06-04T13:07:44.940Z" agent="5.0 (Macintosh; Intel Mac OS X 10_15_7) AppleWebKit/537.36 (KHTML, like Gecko) Chrome/101.0.4951.64 Safari/537.36" etag="mtv5ZR6lYGzwcNaUF1c_" version="18.1.3" type="github">
  <diagram id="DLoVvribL-V9UopOUuG_" name="第 1 页">
    <mxGraphModel dx="1362" dy="593" grid="0" gridSize="10" guides="1" tooltips="1" connect="1" arrows="1" fold="1" page="0" pageScale="1" pageWidth="827" pageHeight="1169" math="0" shadow="0">
      <root>
        <mxCell id="0" />
        <mxCell id="1" parent="0" />
        <mxCell id="MLwZ0RpZ98RDHFDDcyUX-30" value="运行时" style="rounded=0;whiteSpace=wrap;html=1;fontSize=17;align=right;verticalAlign=top;" vertex="1" parent="1">
          <mxGeometry x="740" y="210" width="310" height="260" as="geometry" />
        </mxCell>
        <mxCell id="MLwZ0RpZ98RDHFDDcyUX-11" value="编译时" style="rounded=0;whiteSpace=wrap;html=1;align=left;verticalAlign=top;fontSize=17;" vertex="1" parent="1">
          <mxGeometry x="80" y="210" width="630" height="260" as="geometry" />
        </mxCell>
        <mxCell id="Kol5dVrW6MV9rahQ3V4l-14" style="edgeStyle=orthogonalEdgeStyle;rounded=0;orthogonalLoop=1;jettySize=auto;html=1;exitX=0.5;exitY=1;exitDx=0;exitDy=0;entryX=0.5;entryY=0;entryDx=0;entryDy=0;" parent="1" source="Kol5dVrW6MV9rahQ3V4l-1" target="Kol5dVrW6MV9rahQ3V4l-7" edge="1">
          <mxGeometry relative="1" as="geometry" />
        </mxCell>
        <mxCell id="Kol5dVrW6MV9rahQ3V4l-1" value="AvitatorInstance" style="rounded=1;whiteSpace=wrap;html=1;fillColor=#ffcc99;strokeColor=#36393d;" parent="1" vertex="1">
          <mxGeometry x="281" y="131" width="141" height="60" as="geometry" />
        </mxCell>
        <mxCell id="Kol5dVrW6MV9rahQ3V4l-5" style="edgeStyle=orthogonalEdgeStyle;rounded=0;orthogonalLoop=1;jettySize=auto;html=1;exitX=0.5;exitY=1;exitDx=0;exitDy=0;" parent="1" source="Kol5dVrW6MV9rahQ3V4l-2" target="Kol5dVrW6MV9rahQ3V4l-1" edge="1">
          <mxGeometry relative="1" as="geometry" />
        </mxCell>
        <mxCell id="MLwZ0RpZ98RDHFDDcyUX-7" style="edgeStyle=orthogonalEdgeStyle;rounded=0;orthogonalLoop=1;jettySize=auto;html=1;exitX=0;exitY=0.5;exitDx=0;exitDy=0;" edge="1" parent="1" source="Kol5dVrW6MV9rahQ3V4l-2" target="Kol5dVrW6MV9rahQ3V4l-3">
          <mxGeometry relative="1" as="geometry" />
        </mxCell>
        <mxCell id="Kol5dVrW6MV9rahQ3V4l-2" value="AvitatorFactory" style="rounded=1;whiteSpace=wrap;html=1;fillColor=#ffcc99;strokeColor=#36393d;" parent="1" vertex="1">
          <mxGeometry x="273.5" y="40" width="156" height="60" as="geometry" />
        </mxCell>
        <mxCell id="Kol5dVrW6MV9rahQ3V4l-3" value="option" style="rounded=1;whiteSpace=wrap;html=1;fillColor=#f9f7ed;strokeColor=#36393d;" parent="1" vertex="1">
          <mxGeometry x="145" y="40" width="80" height="60" as="geometry" />
        </mxCell>
        <mxCell id="MLwZ0RpZ98RDHFDDcyUX-13" style="edgeStyle=orthogonalEdgeStyle;rounded=0;orthogonalLoop=1;jettySize=auto;html=1;exitX=0.5;exitY=1;exitDx=0;exitDy=0;fontSize=17;" edge="1" parent="1" source="Kol5dVrW6MV9rahQ3V4l-6" target="Kol5dVrW6MV9rahQ3V4l-19">
          <mxGeometry relative="1" as="geometry" />
        </mxCell>
        <mxCell id="MLwZ0RpZ98RDHFDDcyUX-14" style="edgeStyle=orthogonalEdgeStyle;rounded=0;orthogonalLoop=1;jettySize=auto;html=1;exitX=0.5;exitY=1;exitDx=0;exitDy=0;fontSize=17;" edge="1" parent="1" source="Kol5dVrW6MV9rahQ3V4l-6" target="Kol5dVrW6MV9rahQ3V4l-18">
          <mxGeometry relative="1" as="geometry" />
        </mxCell>
        <mxCell id="MLwZ0RpZ98RDHFDDcyUX-15" style="edgeStyle=orthogonalEdgeStyle;rounded=0;orthogonalLoop=1;jettySize=auto;html=1;exitX=0.5;exitY=1;exitDx=0;exitDy=0;fontSize=17;" edge="1" parent="1" source="Kol5dVrW6MV9rahQ3V4l-6" target="Kol5dVrW6MV9rahQ3V4l-21">
          <mxGeometry relative="1" as="geometry" />
        </mxCell>
        <mxCell id="Kol5dVrW6MV9rahQ3V4l-6" value="Lexer" style="rounded=1;whiteSpace=wrap;html=1;fillColor=#dae8fc;strokeColor=#6c8ebf;" parent="1" vertex="1">
          <mxGeometry x="175" y="305" width="80" height="50" as="geometry" />
        </mxCell>
        <mxCell id="Kol5dVrW6MV9rahQ3V4l-13" style="edgeStyle=orthogonalEdgeStyle;rounded=0;orthogonalLoop=1;jettySize=auto;html=1;exitX=0;exitY=0.5;exitDx=0;exitDy=0;entryX=0.5;entryY=0;entryDx=0;entryDy=0;" parent="1" source="Kol5dVrW6MV9rahQ3V4l-7" target="Kol5dVrW6MV9rahQ3V4l-6" edge="1">
          <mxGeometry relative="1" as="geometry" />
        </mxCell>
        <mxCell id="Kol5dVrW6MV9rahQ3V4l-15" style="edgeStyle=orthogonalEdgeStyle;rounded=0;orthogonalLoop=1;jettySize=auto;html=1;exitX=1;exitY=0.5;exitDx=0;exitDy=0;entryX=0.5;entryY=0;entryDx=0;entryDy=0;" parent="1" source="Kol5dVrW6MV9rahQ3V4l-7" target="Kol5dVrW6MV9rahQ3V4l-8" edge="1">
          <mxGeometry relative="1" as="geometry" />
        </mxCell>
        <mxCell id="Kol5dVrW6MV9rahQ3V4l-7" value="Parser" style="rounded=1;whiteSpace=wrap;html=1;fillColor=#ffcccc;strokeColor=#36393d;" parent="1" vertex="1">
          <mxGeometry x="293" y="230" width="133" height="60" as="geometry" />
        </mxCell>
        <mxCell id="MLwZ0RpZ98RDHFDDcyUX-23" style="edgeStyle=orthogonalEdgeStyle;rounded=0;orthogonalLoop=1;jettySize=auto;html=1;exitX=0;exitY=0.5;exitDx=0;exitDy=0;entryX=1;entryY=0.5;entryDx=0;entryDy=0;fontSize=17;" edge="1" parent="1" source="Kol5dVrW6MV9rahQ3V4l-8" target="Kol5dVrW6MV9rahQ3V4l-20">
          <mxGeometry relative="1" as="geometry" />
        </mxCell>
        <mxCell id="MLwZ0RpZ98RDHFDDcyUX-26" style="edgeStyle=orthogonalEdgeStyle;rounded=0;orthogonalLoop=1;jettySize=auto;html=1;exitX=1;exitY=0.5;exitDx=0;exitDy=0;entryX=0.5;entryY=1;entryDx=0;entryDy=0;fontSize=6;" edge="1" parent="1" source="Kol5dVrW6MV9rahQ3V4l-8" target="MLwZ0RpZ98RDHFDDcyUX-25">
          <mxGeometry relative="1" as="geometry" />
        </mxCell>
        <mxCell id="Kol5dVrW6MV9rahQ3V4l-8" value="Codegen" style="rounded=1;whiteSpace=wrap;html=1;fillColor=#dae8fc;strokeColor=#6c8ebf;" parent="1" vertex="1">
          <mxGeometry x="490" y="300" width="90" height="50" as="geometry" />
        </mxCell>
        <mxCell id="Kol5dVrW6MV9rahQ3V4l-16" style="edgeStyle=orthogonalEdgeStyle;rounded=0;orthogonalLoop=1;jettySize=auto;html=1;exitX=0.5;exitY=0;exitDx=0;exitDy=0;entryX=0.25;entryY=1;entryDx=0;entryDy=0;" parent="1" source="Kol5dVrW6MV9rahQ3V4l-9" target="Kol5dVrW6MV9rahQ3V4l-8" edge="1">
          <mxGeometry relative="1" as="geometry" />
        </mxCell>
        <mxCell id="Kol5dVrW6MV9rahQ3V4l-9" value="ValidatorCodegen" style="rounded=1;whiteSpace=wrap;html=1;" parent="1" vertex="1">
          <mxGeometry x="380" y="400" width="100" height="50" as="geometry" />
        </mxCell>
        <mxCell id="Kol5dVrW6MV9rahQ3V4l-17" style="edgeStyle=orthogonalEdgeStyle;rounded=0;orthogonalLoop=1;jettySize=auto;html=1;exitX=0.5;exitY=0;exitDx=0;exitDy=0;entryX=0.75;entryY=1;entryDx=0;entryDy=0;" parent="1" source="Kol5dVrW6MV9rahQ3V4l-10" target="Kol5dVrW6MV9rahQ3V4l-8" edge="1">
          <mxGeometry relative="1" as="geometry" />
        </mxCell>
        <mxCell id="Kol5dVrW6MV9rahQ3V4l-10" value="InterpretCodegen" style="rounded=1;whiteSpace=wrap;html=1;" parent="1" vertex="1">
          <mxGeometry x="590" y="400" width="100" height="50" as="geometry" />
        </mxCell>
        <mxCell id="Kol5dVrW6MV9rahQ3V4l-18" value="Token" style="rounded=1;whiteSpace=wrap;html=1;" parent="1" vertex="1">
          <mxGeometry x="180" y="395" width="70" height="50" as="geometry" />
        </mxCell>
        <mxCell id="Kol5dVrW6MV9rahQ3V4l-19" value="TokenType" style="rounded=1;whiteSpace=wrap;html=1;" parent="1" vertex="1">
          <mxGeometry x="85" y="395" width="70" height="50" as="geometry" />
        </mxCell>
        <mxCell id="Kol5dVrW6MV9rahQ3V4l-20" value="Optimizer" style="rounded=1;whiteSpace=wrap;html=1;fillColor=#cce5ff;strokeColor=#36393d;" parent="1" vertex="1">
          <mxGeometry x="374" y="300" width="80" height="50" as="geometry" />
        </mxCell>
        <mxCell id="Kol5dVrW6MV9rahQ3V4l-21" value="SymbolTable" style="rounded=1;whiteSpace=wrap;html=1;" parent="1" vertex="1">
          <mxGeometry x="275" y="395" width="80" height="50" as="geometry" />
        </mxCell>
        <mxCell id="Kol5dVrW6MV9rahQ3V4l-22" value="Expression" style="rounded=1;whiteSpace=wrap;html=1;fillColor=#f8cecc;strokeColor=#b85450;" parent="1" vertex="1">
          <mxGeometry x="820" y="230" width="120" height="56.25" as="geometry" />
        </mxCell>
        <mxCell id="MLwZ0RpZ98RDHFDDcyUX-19" style="edgeStyle=orthogonalEdgeStyle;rounded=0;orthogonalLoop=1;jettySize=auto;html=1;exitX=0.5;exitY=0;exitDx=0;exitDy=0;entryX=0.75;entryY=1;entryDx=0;entryDy=0;fontSize=17;" edge="1" parent="1" source="Kol5dVrW6MV9rahQ3V4l-23" target="Kol5dVrW6MV9rahQ3V4l-22">
          <mxGeometry relative="1" as="geometry" />
        </mxCell>
        <mxCell id="Kol5dVrW6MV9rahQ3V4l-23" value="InterpretExpression" style="rounded=1;whiteSpace=wrap;html=1;" parent="1" vertex="1">
          <mxGeometry x="910" y="333.75" width="100" height="50" as="geometry" />
        </mxCell>
        <mxCell id="MLwZ0RpZ98RDHFDDcyUX-17" style="edgeStyle=orthogonalEdgeStyle;rounded=0;orthogonalLoop=1;jettySize=auto;html=1;exitX=0.5;exitY=0;exitDx=0;exitDy=0;entryX=0.25;entryY=1;entryDx=0;entryDy=0;fontSize=17;" edge="1" parent="1" target="Kol5dVrW6MV9rahQ3V4l-22">
          <mxGeometry relative="1" as="geometry">
            <mxPoint x="820" y="336.25" as="sourcePoint" />
          </mxGeometry>
        </mxCell>
        <mxCell id="Kol5dVrW6MV9rahQ3V4l-24" value="BaseExpression" style="rounded=1;whiteSpace=wrap;html=1;" parent="1" vertex="1">
          <mxGeometry x="770" y="340" width="100" height="45" as="geometry" />
        </mxCell>
        <mxCell id="MLwZ0RpZ98RDHFDDcyUX-5" value="函数支持" style="rounded=1;whiteSpace=wrap;html=1;" vertex="1" parent="1">
          <mxGeometry x="910" y="396.25" width="100" height="53.75" as="geometry" />
        </mxCell>
        <mxCell id="MLwZ0RpZ98RDHFDDcyUX-16" style="edgeStyle=orthogonalEdgeStyle;rounded=0;orthogonalLoop=1;jettySize=auto;html=1;exitX=0.5;exitY=0;exitDx=0;exitDy=0;entryX=0.5;entryY=1;entryDx=0;entryDy=0;fontSize=17;" edge="1" parent="1" source="MLwZ0RpZ98RDHFDDcyUX-6" target="Kol5dVrW6MV9rahQ3V4l-8">
          <mxGeometry relative="1" as="geometry" />
        </mxCell>
        <mxCell id="MLwZ0RpZ98RDHFDDcyUX-6" value="ClassCodegen" style="rounded=1;whiteSpace=wrap;html=1;" vertex="1" parent="1">
          <mxGeometry x="490" y="400" width="90" height="50" as="geometry" />
        </mxCell>
        <mxCell id="MLwZ0RpZ98RDHFDDcyUX-21" value="执行过程" style="rounded=0;whiteSpace=wrap;html=1;align=left;verticalAlign=top;fontSize=17;" vertex="1" parent="1">
          <mxGeometry x="710" y="1070" width="650" height="260" as="geometry" />
        </mxCell>
        <mxCell id="MLwZ0RpZ98RDHFDDcyUX-22" style="edgeStyle=orthogonalEdgeStyle;rounded=0;orthogonalLoop=1;jettySize=auto;html=1;exitX=0.5;exitY=1;exitDx=0;exitDy=0;fontSize=17;" edge="1" parent="1">
          <mxGeometry relative="1" as="geometry">
            <mxPoint x="820" y="381.25" as="sourcePoint" />
            <mxPoint x="820" y="381.25" as="targetPoint" />
          </mxGeometry>
        </mxCell>
        <mxCell id="MLwZ0RpZ98RDHFDDcyUX-24" value="运行时类" style="rounded=1;whiteSpace=wrap;html=1;" vertex="1" parent="1">
          <mxGeometry x="770" y="396.25" width="100" height="53.75" as="geometry" />
        </mxCell>
        <mxCell id="MLwZ0RpZ98RDHFDDcyUX-27" style="edgeStyle=orthogonalEdgeStyle;rounded=0;orthogonalLoop=1;jettySize=auto;html=1;exitX=1;exitY=0.5;exitDx=0;exitDy=0;entryX=0;entryY=0.5;entryDx=0;entryDy=0;fontSize=6;" edge="1" parent="1" source="MLwZ0RpZ98RDHFDDcyUX-25" target="Kol5dVrW6MV9rahQ3V4l-22">
          <mxGeometry relative="1" as="geometry" />
        </mxCell>
        <mxCell id="MLwZ0RpZ98RDHFDDcyUX-25" value="类加载" style="rounded=1;whiteSpace=wrap;html=1;fontSize=6;fillColor=#cdeb8b;strokeColor=#36393d;" vertex="1" parent="1">
          <mxGeometry x="600" y="227.5" width="100" height="62.5" as="geometry" />
        </mxCell>
        <mxCell id="MLwZ0RpZ98RDHFDDcyUX-31" value="支持工具" style="rounded=1;whiteSpace=wrap;html=1;fontSize=17;align=left;fillColor=#eeeeee;strokeColor=#36393d;" vertex="1" parent="1">
          <mxGeometry x="80" y="500" width="970" height="60" as="geometry" />
        </mxCell>
        <mxCell id="MLwZ0RpZ98RDHFDDcyUX-32" value="异常定义" style="rounded=1;whiteSpace=wrap;html=1;fontSize=15;fillColor=#eeeeee;strokeColor=#36393d;" vertex="1" parent="1">
          <mxGeometry x="225" y="507.5" width="245" height="45" as="geometry" />
        </mxCell>
        <mxCell id="MLwZ0RpZ98RDHFDDcyUX-33" value="字节码工具" style="rounded=1;whiteSpace=wrap;html=1;fontSize=15;fillColor=#eeeeee;strokeColor=#36393d;" vertex="1" parent="1">
          <mxGeometry x="660" y="507.5" width="245" height="45" as="geometry" />
        </mxCell>
      </root>
    </mxGraphModel>
  </diagram>
</mxfile>
